<?xml version="1.0" encoding="UTF-8" standalone="no"?>
<!-- Created with Inkscape (http://www.inkscape.org/) -->

<svg
   width="16"
   height="16"
   viewBox="0 0 16 16"
   version="1.1"
   id="SVGRoot"
   xmlns="http://www.w3.org/2000/svg"
   xmlnssvg="http://www.w3.org/2000/svg">
  <defs
     id="defs9" />
  <g
     id="layer1">
    <path
       style="stroke-width:2.03422"
       id="path971"
       d="m 3.7687249,11.927119 c 0.1066988,-0.25741 0.284332,-0.48701 0.464171,-0.697102 0.097053,-0.113388 0.2063454,-0.215874 0.3035851,-0.329092 0.116992,-0.136211 0.2258499,-0.279213 0.3387749,-0.418819 0.1288433,-0.160825 0.2605258,-0.3194 0.3865328,-0.4824466 C 5.5405968,9.6388913 5.8085306,9.269823 6.0862045,8.9081837 6.4759872,8.4005323 6.8684717,7.8956881 7.2513399,7.3827722 7.7681054,6.6797713 8.2247218,5.9346449 8.6292344,5.1621211 8.743527,4.9433641 8.8389542,4.7157554 8.9080989,4.4787794 8.9452234,4.3515447 8.9796273,4.237054 8.9742698,4.1053422 8.6365407,3.4617922 8.8803174,3.8809631 7.0051907,3.6908184 c -0.04945,-0.00502 -0.037718,0.094117 -0.039484,0.1437907 -0.00291,0.082073 0.018694,0.1632054 0.025674,0.245032 0.080232,0.9394893 -0.053917,-0.4676778 0.052841,0.6251133 0.028465,0.8214461 0.2013368,1.6288682 0.3582061,2.4332344 0.1344761,0.6340311 0.2904486,1.2675843 0.3449853,1.9152306 0.00962,0.1142621 0.011961,0.2289981 0.017942,0.3434961 0.027602,0.5970719 -0.1273447,1.1621715 -0.3650532,1.7031475 -0.1860578,0.374303 -0.4182811,0.669006 -0.7414674,0.930808 -0.038534,0.02014 -0.073653,0.04886 -0.1156005,0.06013 -0.033166,0.009 -0.068679,-9.38e-4 -0.1030169,-0.0014 0.6049737,0.118534 1.2128944,0.22292 1.8149209,0.35562 0.01723,0.0039 -0.022747,0.0428 -0.038961,0.03584 -0.045235,-0.01933 -0.022265,-0.134505 -0.0178,-0.196183 0.074101,-0.348153 0.1948661,-0.688555 0.3484907,-1.009666 0.053714,-0.112269 0.1165872,-0.21993 0.1748797,-0.329894 0.060679,-0.127728 0.1213595,-0.255459 0.1820382,-0.383189 0.5222819,-0.9727093 1.0832006,-1.9249412 1.6411324,-2.8776673 0.535186,-0.8917265 1.061748,-1.7886256 1.60184,-2.6774139 0.274614,-0.4372432 0.496627,-0.9083763 0.613693,-1.4125041 0.113881,-0.7979886 -0.523546,-0.3635714 -1.926906,-0.550861 -0.02477,-0.00332 -0.06882,0.3597491 -0.07237,0.3858446 -0.06223,0.4650169 -0.04787,0.9369982 -0.02407,1.404339 0.05077,0.4097212 0.07139,0.8228566 0.117668,1.2329503 0.0094,0.082844 0.07566,0.544352 0.08733,0.6263542 0.118713,0.6992544 0.26093,1.3937447 0.362466,2.0957697 0.0458,0.4566434 0.08014,0.9158764 0.0551,1.3749295 -0.01025,0.187963 -0.03362,0.384534 -0.05368,0.571853 -0.03585,0.288171 -0.108402,0.570769 -0.246661,0.827619 -0.06705,0.124556 -0.115446,0.185358 -0.196476,0.299297 -0.08901,0.11589 -0.183445,0.227493 -0.304993,0.310575 -0.02784,0.01912 -0.05499,0.05871 -0.08768,0.05045 -0.03371,-0.0085 -0.09129,-0.0949 -0.05739,-0.08713 0.635096,0.145467 1.258593,0.337607 1.88789,0.50641 0.0044,-0.109725 -0.01652,-0.223446 0.01318,-0.329159 0.126095,-0.448673 0.461204,-0.996415 0.770752,-1.313112 0.283542,-0.29009 0.62978,-0.511442 0.94467,-0.767162 0,0 -0.03891,-0.0118 -0.03891,-0.0118 v 0 c -0.349406,0.245358 -0.684315,0.512783 -1.048219,0.736075 -0.351278,0.215543 -0.726467,0.389532 -1.093077,0.577821 -0.766079,0.393455 -0.682269,0.346261 -1.346646,0.629452 0.595405,0.223353 1.182203,0.471155 1.786215,0.670061 0.02894,0.0096 -0.02477,-0.05861 -0.02132,-0.08887 0.0033,-0.02878 0.0264,-0.05157 0.04026,-0.07702 0.06825,-0.125246 0.148227,-0.243076 0.217618,-0.367697 0.08605,-0.173417 0.173698,-0.346449 0.224289,-0.53454 0.06317,-0.234849 0.0661,-0.475342 0.05478,-0.716757 -0.0338,-0.669151 -0.06126,-1.3399227 -0.164323,-2.0028378 C 12.558728,8.3544471 12.467664,7.6630671 12.382031,6.9708535 12.303061,6.3658288 12.217457,5.7568924 12.24469,5.1452198 12.26515,4.6871964 12.28684,4.2675561 12.494173,3.847752 c 0.03335,-0.056419 0.07837,-0.1511994 0.138152,-0.1925164 0.01469,-0.010151 0.07008,-0.00507 0.05273,-0.00921 -0.616025,-0.1473139 -1.239371,-0.2638519 -1.852894,-0.4212491 -0.05014,-0.012856 0.230774,-0.088137 0.153219,0.025367 0.02066,0.039553 0.04756,0.076432 0.06199,0.11866 0.132639,0.3882306 -0.01996,0.9490278 -0.125409,1.3244969 C 10.54642,5.6362684 10.115312,6.5559816 9.6148584,7.4397201 9.5149213,7.6108996 9.4180356,7.7839017 9.3150471,7.9532647 8.8299996,8.7509183 8.2816626,9.5098526 7.7027922,10.241546 c -0.5676257,0.706546 -0.037116,0.02364 -0.5007335,0.679933 -0.2278371,0.322531 -0.4895063,0.619755 -0.7184969,0.941359 -0.016477,0.02445 -0.2814313,0.403557 -0.1662526,0.435899 1.9791273,0.555728 1.5222026,0.867049 2.0367327,0.220977 C 8.5916653,12.198283 8.7882851,11.848972 8.9209725,11.470642 9.0933745,10.88532 9.2237858,10.281674 9.140105,9.668479 9.1002424,9.3563282 9.0925083,9.2550729 9.0312072,8.9430991 8.9273111,8.4143467 8.7724357,7.897342 8.6580652,7.3709941 8.5908792,7.073014 8.5339162,6.8455255 8.4884842,6.5429341 8.412019,6.0336503 8.395412,5.5182798 8.4604671,5.0067471 8.4980351,4.8455638 8.5388232,4.6105967 8.6224173,4.4584008 8.6524261,4.4037637 8.6959442,4.3563644 8.7429366,4.3154095 8.7650649,4.2961251 8.8529757,4.289461 8.824519,4.2822619 7.0640716,3.8369172 6.4464062,4.1362192 7.0834538,3.8453034 c 0.027853,0.00659 0.059869,0.00368 0.083554,0.019752 0.2367208,0.1605466 0.066663,0.7287547 0.033168,0.9459874 C 6.9959879,5.6228757 6.7102754,6.394388 6.3020444,7.1283893 6.2094651,7.2946704 6.1207345,7.4631523 6.0243075,7.6272323 5.4588003,8.5894888 4.7940045,9.4987519 3.9153959,10.199741 c -0.4346031,0.317455 -0.8570406,0.636553 -1.3430565,0.872793 -0.190472,0.09258 -0.3621737,0.163022 -0.56723,0.204622 -0.038732,0.0079 -0.078883,0.0049 -0.1183246,0.0075 0,0 1.8819408,0.642503 1.8819408,0.642503 z" />
  </g>
</svg>
